<?xml version="1.0" encoding="utf-8"?>
<!-- Generator: Adobe Illustrator 16.0.0, SVG Export Plug-In . SVG Version: 6.00 Build 0)  -->
<!DOCTYPE svg PUBLIC "-//W3C//DTD SVG 1.1//EN" "http://www.w3.org/Graphics/SVG/1.1/DTD/svg11.dtd">
<svg version="1.1" id="图层_1" focusable="false" xmlns="http://www.w3.org/2000/svg" xmlns:xlink="http://www.w3.org/1999/xlink"
	 x="0px" y="0px" width="612px" height="792px" viewBox="0 0 612 792" enable-background="new 0 0 612 792" xml:space="preserve">
<path fill="#542C85" d="M520.2,181.8h-15.645c-13.961-18.475-35.907-30.6-60.855-30.6c-42.247,0-76.5,34.253-76.5,76.5v20.062
	L11.561,527.552C4.285,533.007,0.001,541.569,0,550.664c0,21.478,22.606,35.448,41.817,25.848L158.04,518.4h92.269l42.467,114.846
	c2.171,5.957,8.75,9.026,14.708,6.855l21.563-7.851c5.957-2.171,9.026-8.749,6.856-14.707L299.249,518.4H336.6
	c1.827,0,3.596-0.221,5.413-0.277l42.563,115.113c2.171,5.957,8.75,9.026,14.707,6.856l21.563-7.852
	c5.957-2.17,9.027-8.749,6.856-14.707l-39.436-106.65C464.489,488.565,520.2,418.242,520.2,334.8v-76.5L612,243
	C612,209.197,570.9,181.8,520.2,181.8z M443.7,250.65c-12.671,0-22.95-10.28-22.95-22.95c0-12.68,10.279-22.95,22.95-22.95
	c12.67,0,22.95,10.27,22.95,22.95C466.65,240.37,456.37,250.65,443.7,250.65z"/>
</svg>
