<?xml version="1.0" encoding="utf-8"?>
<!-- Generator: Adobe Illustrator 16.0.0, SVG Export Plug-In . SVG Version: 6.00 Build 0)  -->
<!DOCTYPE svg PUBLIC "-//W3C//DTD SVG 1.1//EN" "http://www.w3.org/Graphics/SVG/1.1/DTD/svg11.dtd">
<svg version="1.1" id="图层_1" focusable="false" xmlns="http://www.w3.org/2000/svg" xmlns:xlink="http://www.w3.org/1999/xlink"
	 x="0px" y="0px" width="612.001px" height="489.6px" viewBox="-0.001 151.2 612.001 489.6"
	 enable-background="new -0.001 151.2 612.001 489.6" xml:space="preserve">
<path fill="#542C85" d="M581.4,181.8H550.8l-12.67-12.67c-11.476-11.483-27.046-17.933-43.28-17.93h-19.594
	c-10.652,0-21.113,2.783-30.36,8.061L298.35,243H244.8c-101.4,0-183.6,82.199-183.6,183.6v1.54c0,31.317-15.3,59.421-37.83,81.176
	C5.977,526.127-3.5,551.085,1.195,577.975C7.66,615.077,42.218,640.8,79.875,640.8H183.6c16.897,0,30.6-13.703,30.6-30.6
	c0-16.897-13.703-30.601-30.6-30.601H76.5c-8.444,0-15.3-6.855-15.3-15.3c0-8.443,6.856-15.3,15.3-15.3h214.2
	c8.453,0,15.3-6.847,15.3-15.3v-15.3c0-16.897-13.703-30.601-30.6-30.601h-61.2l142.949-76.978L428.4,549h76.5
	c8.453,0,15.3-6.847,15.3-15.3v-15.3c0-16.897-13.703-30.601-30.601-30.601h-26.985l-52.698-105.388L498.34,334.8h21.86
	c50.7,0,91.8-41.1,91.8-91.8v-30.6C612,195.503,598.297,181.8,581.4,181.8z M489.6,197.1c8.454,0,15.301,6.847,15.301,15.3
	c0,8.454-6.847,15.3-15.301,15.3c-8.453,0-15.3-6.847-15.3-15.3C474.3,203.947,481.146,197.1,489.6,197.1z M520.2,288.9H486.77
	l-97.385,52.441l-13.167-26.345L489.6,258.3h73.68C556.948,276.067,540.119,288.9,520.2,288.9z"/>
</svg>
